<svg width="36" height="36" viewBox="0 0 36 36" fill="none" xmlns="http://www.w3.org/2000/svg">
<path d="M35.733 25.4903C35.5255 24.329 34.488 21.6 30.4765 20.5548C30.4765 20.5548 27.7099 19.8581 24.9434 19.5097C24.2517 19.3935 23.6293 19.1032 23.2143 18.5806H27.0183L26.9491 6.96774C26.6033 3.07742 22.7301 0 17.9578 0C13.2546 0 9.38143 3.07742 8.96645 6.96774L8.89728 18.5806H12.6321C11.8022 19.5677 10.6264 19.5097 10.6264 19.5097C8.2748 19.8 5.50824 20.4968 5.50824 20.4968C2.74167 21.1935 0.874235 23.1097 0.251758 25.4903C-0.647377 29.3806 1.15089 33.9677 1.15089 33.9677C1.15089 33.9677 8.2748 36 18.027 36C27.7099 36 34.9722 33.9677 34.9722 33.9677C34.9722 33.9677 36.6321 30.3677 35.733 25.4903ZM10.4881 8.12903H14.3613L15.3296 6.50323L16.2979 8.12903H25.7042C25.5659 9.92903 24.6667 12.1355 23.4218 13.9355H19.5486V13.3548H18.1653V15.6774H19.5486V15.0968H22.5226C21.2777 16.4903 19.7561 17.4194 18.1653 17.4194C14.2229 17.4194 10.7647 11.8452 10.4881 8.12903ZM25.635 17.4194H22.7993V16.4903C23.9751 15.3871 24.9434 14.0516 25.635 12.6V17.4194ZM18.027 1.16129C21.9693 1.16129 25.22 3.71613 25.635 6.96774H17.0587L15.2604 3.94839L13.4621 6.96774H10.4881C10.8339 3.71613 14.0846 1.16129 18.027 1.16129ZM10.4189 17.4194V12.6C11.1105 13.9935 12.0788 15.3871 13.1855 16.4323V17.4194H10.4189ZM14.5687 17.4774C15.6062 18.1742 16.782 18.5806 18.027 18.5806C19.2719 18.5806 20.3785 18.1742 21.416 17.5355C21.4852 19.0452 22.7993 20.3226 24.5284 20.6129C24.5284 20.6129 24.4592 24.2129 24.2517 25.2581C20.3785 27.0581 15.6754 27.0581 11.8022 25.2581C11.5947 24.2129 11.5255 20.6129 11.5255 20.6129C13.2546 20.2645 14.4996 18.9871 14.5687 17.4774ZM1.98086 32.1097C1.35838 30.0194 1.22006 27.8129 1.70421 25.6645C2.46501 22.1226 6.82236 21.4258 7.02985 21.3677L5.43907 23.8645L6.68403 24.9097L4.74743 26.5355L9.86558 34.2581C7.30651 33.9677 4.74743 33.5032 2.32668 32.9226L1.98086 32.1097ZM11.5255 34.5484L6.40737 26.8258L8.62063 24.9677L7.09901 23.6903L8.82812 21.0194C9.2431 20.9613 9.72725 20.8452 10.1422 20.7871C10.1422 20.7871 9.17394 28.1613 15.1912 34.7806C13.9463 34.7226 12.7705 34.6645 11.5255 34.5484ZM16.9895 34.8387C14.6379 32.4581 12.978 29.671 12.148 26.6516C14.0154 27.3484 18.3036 28.6839 23.9059 26.6516C23.0759 29.6129 21.416 32.4581 19.0644 34.8387H16.9895ZM25.9117 20.7871C26.3958 20.8452 26.8108 20.9613 27.2258 21.0194L28.8857 23.6903L27.3641 24.9677L29.5774 26.8258L24.5284 34.5484C23.3526 34.6645 22.1076 34.7226 20.8627 34.7806C26.88 28.1032 25.9117 20.7871 25.9117 20.7871ZM34.0731 32.1097L33.7964 33.0387C31.3065 33.6194 28.7474 34.0839 26.2575 34.3742L31.3756 26.6516L29.439 25.0258L30.684 23.9806L29.0932 21.4839C33.4506 22.3548 34.2114 24.7935 34.4189 25.7806C34.8339 27.871 34.6955 30.0194 34.0731 32.1097Z" fill="black"/>
</svg>
