<svg width="518" height="69" viewBox="0 0 518 69" fill="none" xmlns="http://www.w3.org/2000/svg">
<path d="M88.8511 66.8613C87.2511 66.2413 85.8411 65.5412 84.6211 64.7712L87.9211 58.7113C89.2311 59.4513 90.2711 59.9712 91.0411 60.2712C93.0011 60.9812 94.6211 61.3412 95.9011 61.3412C97.1811 61.3412 98.2311 61.1612 99.1511 60.8112C99.6811 60.6012 100.091 60.3312 100.381 59.9912C100.661 59.6512 100.801 59.3012 100.801 58.9412C100.801 58.4112 100.611 57.9912 100.221 57.6912C99.8311 57.3912 99.2011 57.1313 98.3011 56.8913L92.2411 55.3812C89.8611 54.7912 88.0511 53.6812 86.8111 52.0612C85.5611 50.4412 84.9411 48.6712 84.9411 46.7412C84.9411 45.0512 85.3911 43.4713 86.2811 42.0013C87.1711 40.5313 88.4911 39.3412 90.2411 38.4112C91.9911 37.4912 94.1211 37.0312 96.6111 37.0312C98.6011 37.0312 100.521 37.4212 102.361 38.1912C104.261 38.9312 105.881 39.8813 107.221 41.0413L102.991 46.3913C102.781 46.2113 102.401 45.9713 101.831 45.6513C101.271 45.3413 100.631 45.0612 99.9111 44.8312C98.7811 44.3912 97.6211 44.1612 96.4411 44.1612C95.0111 44.1912 93.9811 44.4412 93.3411 44.9212C92.7011 45.3912 92.3811 45.9413 92.3811 46.5713C92.3811 47.1313 92.5911 47.5912 93.0311 47.9512C93.4611 48.3112 94.0011 48.5613 94.6611 48.7113L100.361 50.0512C102.681 50.5812 104.581 51.5613 106.061 52.9713C107.541 54.3813 108.291 56.2713 108.291 58.6513C108.291 60.7013 107.751 62.4712 106.661 63.9512C105.581 65.4412 104.141 66.5612 102.341 67.3412C100.541 68.1112 98.6011 68.5013 96.5311 68.5013C94.1211 68.5013 91.5711 67.9713 88.8711 66.9013L88.8511 66.8613Z" fill="white"/>
<path d="M126.089 68.1502H118.519V44.7602H110.949V37.4102H133.669V44.7602H126.099V68.1502H126.089Z" fill="white"/>
<path d="M147.029 68.6908C145.069 68.6908 143.249 68.2008 141.569 67.2208C139.889 66.2408 138.559 64.9108 137.579 63.2308C136.599 61.5508 136.109 59.7208 136.109 57.7308V47.7108C136.109 45.7808 136.599 43.9808 137.579 42.3008C138.559 40.6208 139.889 39.2908 141.569 38.2908C143.249 37.3008 145.069 36.8008 147.029 36.8008H149.259C151.219 36.8008 153.039 37.3008 154.719 38.2908C156.399 39.2908 157.729 40.6208 158.709 42.3008C159.689 43.9808 160.179 45.7808 160.179 47.7108V57.7308C160.179 59.7208 159.689 61.5508 158.709 63.2308C157.729 64.9108 156.399 66.2408 154.719 67.2208C153.039 68.2008 151.219 68.6908 149.259 68.6908H147.029ZM148.499 61.5608C149.809 61.5608 150.819 61.2008 151.529 60.4708C152.239 59.7408 152.599 58.7408 152.599 57.4608V48.0208C152.599 46.7108 152.239 45.7008 151.529 44.9908C150.819 44.2808 149.809 43.9208 148.499 43.9208H147.789C146.509 43.9208 145.509 44.2808 144.779 44.9908C144.049 45.7008 143.689 46.7108 143.689 48.0208V57.4608C143.689 58.7408 144.049 59.7408 144.779 60.4708C145.509 61.2008 146.509 61.5608 147.789 61.5608H148.499Z" fill="white"/>
<path d="M172.203 68.1502H164.633V37.4102H173.093L179.593 52.6502L186.093 37.4102H194.553V68.1502H186.983V52.6502L181.593 65.4802H177.583L172.193 52.6502V68.1502H172.203Z" fill="white"/>
<path d="M214.651 58.2199H199.461V52.9199H214.651V58.2199Z" fill="white"/>
<path d="M227.71 37.4104L236.49 37.4504L246.74 68.1404H238.72L236.98 62.2204H227.14L225.36 68.1404H217.34L227.72 37.4004L227.71 37.4104ZM232.07 45.8804L229.13 55.1004H234.97L232.07 45.8804Z" fill="white"/>
<path d="M259.869 68.6407C257.909 68.6407 256.089 68.1507 254.409 67.1707C252.729 66.1907 251.399 64.8607 250.419 63.1807C249.439 61.5007 248.949 59.6707 248.949 57.6807V47.8807C248.949 45.9507 249.439 44.1407 250.419 42.4707C251.399 40.7907 252.729 39.4607 254.409 38.4607C256.089 37.4707 257.909 36.9707 259.869 36.9707H261.389C263.349 36.9707 265.169 37.4707 266.849 38.4607C268.529 39.4607 269.859 40.7907 270.839 42.4707C271.819 44.1507 272.309 45.9507 272.309 47.8807V48.7307H264.739V48.2407C264.739 47.0507 264.379 46.1007 263.669 45.3907C262.959 44.6807 262.009 44.3207 260.819 44.3207H260.549C259.359 44.3207 258.399 44.6807 257.649 45.4107C256.909 46.1407 256.539 47.1007 256.539 48.2807V57.4107C256.539 58.5707 256.909 59.5007 257.649 60.2207C258.389 60.9307 259.359 61.2907 260.549 61.2907H260.819C262.069 61.2907 263.029 61.0507 263.719 60.5807C264.399 60.1107 264.739 59.3007 264.739 58.1707V57.7307H272.309V58.5807C272.309 60.5407 271.829 62.2907 270.859 63.8107C269.889 65.3407 268.569 66.5307 266.899 67.3707C265.219 68.2207 263.389 68.6407 261.399 68.6407H259.879H259.869Z" fill="white"/>
<path d="M284.913 37.4104L293.693 37.4504L303.943 68.1404H295.923L294.183 62.2204H284.343L282.563 68.1404H274.543L284.923 37.4004L284.913 37.4104ZM289.273 45.8804L286.333 55.1004H292.173L289.273 45.8804Z" fill="white"/>
<path d="M307.053 68.1502V37.4102H320.243C322.053 37.4102 323.743 37.8702 325.323 38.7902C326.893 39.7102 328.143 40.9602 329.063 42.5302C329.983 44.1002 330.443 45.8002 330.443 47.6102V57.9502C330.443 59.8502 329.993 61.5802 329.103 63.1402C328.213 64.7002 326.983 65.9202 325.423 66.8202C323.863 67.7102 322.133 68.1602 320.233 68.1602H307.043L307.053 68.1502ZM318.993 61.0202C320.413 61.0202 321.423 60.7302 322.003 60.1502C322.583 59.5702 322.873 58.5702 322.873 57.1402V48.4102C322.873 46.9802 322.583 45.9802 322.003 45.4002C321.423 44.8202 320.423 44.5302 318.993 44.5302H314.623V61.0102H318.993V61.0202Z" fill="white"/>
<path d="M355.831 68.1502H334.891V37.4102H355.831V44.7602H342.471V49.0802H354.721V56.4302H342.471V60.8002H355.831V68.1502Z" fill="white"/>
<path d="M367.863 68.1502H360.293V37.4102H368.753L375.253 52.6502L381.753 37.4102H390.213V68.1502H382.643V52.6502L377.253 65.4802H373.243L367.853 52.6502V68.1502H367.863Z" fill="white"/>
<path d="M412.362 37.4102H420.962L410.852 57.2802V68.1502H403.282V57.2802L393.352 37.4102H401.902L407.112 48.0102L412.372 37.4102H412.362Z" fill="white"/>
<path d="M421.21 67.1499C420.45 66.3899 420.07 65.4999 420.07 64.4499C420.07 63.3999 420.44 62.5199 421.18 61.7799C421.92 61.0399 422.84 60.6699 423.94 60.6699C424.95 60.6699 425.83 61.0399 426.57 61.7799C427.31 62.5199 427.68 63.4099 427.68 64.4499C427.68 65.4899 427.31 66.3899 426.57 67.1499C425.83 67.9099 424.95 68.2899 423.94 68.2899C422.87 68.2899 421.96 67.9099 421.2 67.1499H421.21Z" fill="white"/>
<path d="M442.611 68.6407C440.651 68.6407 438.831 68.1507 437.151 67.1707C435.471 66.1907 434.141 64.8607 433.161 63.1807C432.181 61.5007 431.691 59.6707 431.691 57.6807V47.8807C431.691 45.9507 432.181 44.1407 433.161 42.4707C434.141 40.7907 435.471 39.4607 437.151 38.4607C438.831 37.4707 440.651 36.9707 442.611 36.9707H444.121C446.081 36.9707 447.901 37.4707 449.581 38.4607C451.261 39.4607 452.591 40.7907 453.571 42.4707C454.551 44.1507 455.041 45.9507 455.041 47.8807V48.7307H447.471V48.2407C447.471 47.0507 447.111 46.1007 446.401 45.3907C445.691 44.6807 444.741 44.3207 443.551 44.3207H443.281C442.091 44.3207 441.131 44.6807 440.381 45.4107C439.641 46.1407 439.271 47.1007 439.271 48.2807V57.4107C439.271 58.5707 439.641 59.5007 440.381 60.2207C441.121 60.9307 442.091 61.2907 443.281 61.2907H443.551C444.801 61.2907 445.761 61.0507 446.451 60.5807C447.131 60.1107 447.471 59.3007 447.471 58.1707V57.7307H455.041V58.5807C455.041 60.5407 454.561 62.2907 453.591 63.8107C452.621 65.3407 451.301 66.5307 449.631 67.3707C447.951 68.2207 446.121 68.6407 444.131 68.6407H442.621H442.611Z" fill="white"/>
<path d="M469.522 68.6908C467.562 68.6908 465.742 68.2008 464.062 67.2208C462.382 66.2408 461.052 64.9108 460.072 63.2308C459.092 61.5508 458.602 59.7208 458.602 57.7308V47.7108C458.602 45.7808 459.092 43.9808 460.072 42.3008C461.052 40.6208 462.382 39.2908 464.062 38.2908C465.742 37.3008 467.562 36.8008 469.522 36.8008H471.752C473.712 36.8008 475.532 37.3008 477.212 38.2908C478.892 39.2908 480.222 40.6208 481.202 42.3008C482.182 43.9808 482.672 45.7808 482.672 47.7108V57.7308C482.672 59.7208 482.182 61.5508 481.202 63.2308C480.222 64.9108 478.892 66.2408 477.212 67.2208C475.532 68.2008 473.712 68.6908 471.752 68.6908H469.522ZM470.992 61.5608C472.302 61.5608 473.312 61.2008 474.022 60.4708C474.732 59.7408 475.092 58.7408 475.092 57.4608V48.0208C475.092 46.7108 474.732 45.7008 474.022 44.9908C473.312 44.2808 472.302 43.9208 470.992 43.9208H470.282C469.002 43.9208 468.002 44.2808 467.272 44.9908C466.542 45.7008 466.182 46.7108 466.182 48.0208V57.4608C466.182 58.7408 466.542 59.7408 467.272 60.4708C468.002 61.2008 469.002 61.5608 470.282 61.5608H470.992Z" fill="white"/>
<path d="M494.691 68.1502H487.121V37.4102H495.581L502.081 52.6502L508.581 37.4102H517.041V68.1502H509.471V52.6502L504.081 65.4802H500.071L494.681 52.6502V68.1502H494.691Z" fill="white"/>
<path d="M84.6233 23.0407V1.9707H93.6633C94.9033 1.9707 96.0633 2.2907 97.1433 2.9207C98.2233 3.5507 99.0733 4.41071 99.7033 5.48071C100.333 6.56071 100.653 7.7207 100.653 8.9607V16.0407C100.653 17.3407 100.343 18.5307 99.7333 19.6007C99.1233 20.6707 98.2833 21.5107 97.2133 22.1207C96.1433 22.7307 94.9633 23.0407 93.6533 23.0407H84.6133H84.6233ZM92.8033 18.1607C93.7833 18.1607 94.4633 17.9607 94.8633 17.5607C95.2633 17.1607 95.4633 16.4807 95.4633 15.5007V9.5207C95.4633 8.5407 95.2633 7.8607 94.8633 7.4607C94.4633 7.0607 93.7833 6.8607 92.8033 6.8607H89.8133V18.1607H92.8033Z" fill="white"/>
<path d="M118.053 23.0407H103.703V1.9707H118.053V7.0107H108.893V9.9707H117.293V15.0107H108.893V18.0007H118.053V23.0407Z" fill="white"/>
<path d="M126.292 23.0409H121.102V1.97094H124.832L132.462 12.4109L132.492 12.5609V1.96094H137.682V23.0309H134.112L126.322 12.9809L126.292 13.0709V23.0209V23.0409Z" fill="white"/>
<path d="M150.962 23.0407H145.772V7.0107H140.582V1.9707H156.152V7.0107H150.962V23.0407Z" fill="white"/>
<path d="M162.204 1.98047L168.214 2.01047L175.234 23.0505H169.734L168.544 18.9905H161.794L160.574 23.0505H155.074L162.184 1.98047H162.204ZM165.194 7.78047L163.174 14.1005H167.174L165.194 7.78047Z" fill="white"/>
<path d="M190.805 23.0407H177.375V1.9707H182.565V18.1507H190.805V23.0407Z" fill="white"/>
<path d="M214.772 23.0407H200.422V1.9707H214.772V7.0107H205.612V9.9707H214.012V15.0107H205.612V18.0007H214.772V23.0407Z" fill="white"/>
<path d="M217.834 23.0407V1.9707H226.874C228.114 1.9707 229.274 2.2907 230.354 2.9207C231.434 3.5507 232.284 4.41071 232.914 5.48071C233.544 6.56071 233.864 7.7207 233.864 8.9607V16.0407C233.864 17.3407 233.554 18.5307 232.944 19.6007C232.334 20.6707 231.494 21.5107 230.424 22.1207C229.354 22.7307 228.174 23.0407 226.864 23.0407H217.824H217.834ZM226.014 18.1607C226.994 18.1607 227.674 17.9607 228.074 17.5607C228.474 17.1607 228.674 16.4807 228.674 15.5007V9.5207C228.674 8.5407 228.474 7.8607 228.074 7.4607C227.674 7.0607 226.994 6.8607 226.014 6.8607H223.024V18.1607H226.014Z" fill="white"/>
<path d="M244.394 23.2005C243.054 23.2005 241.804 22.8605 240.654 22.1905C239.504 21.5205 238.594 20.6105 237.924 19.4605C237.254 18.3105 236.914 17.0505 236.914 15.6905V1.98047H242.104V15.3505C242.104 16.1605 242.364 16.8405 242.894 17.3705C243.424 17.9005 244.094 18.1605 244.904 18.1605H245.304C246.114 18.1605 246.794 17.9005 247.324 17.3705C247.854 16.8405 248.114 16.1705 248.114 15.3505V1.98047H253.304V15.6905C253.304 17.0505 252.964 18.3105 252.294 19.4605C251.624 20.6105 250.714 21.5205 249.564 22.1905C248.414 22.8605 247.164 23.2005 245.824 23.2005H244.394Z" fill="white"/>
<path d="M263.843 23.3799C262.503 23.3799 261.253 23.0399 260.103 22.3699C258.953 21.6999 258.043 20.7899 257.373 19.6399C256.703 18.4899 256.363 17.2299 256.363 15.8699V9.14992C256.363 7.82992 256.703 6.58992 257.373 5.43992C258.043 4.28992 258.953 3.36992 260.103 2.68992C261.253 2.00992 262.503 1.66992 263.843 1.66992H264.883C266.223 1.66992 267.473 2.00992 268.623 2.68992C269.773 3.36992 270.683 4.28992 271.353 5.43992C272.023 6.58992 272.363 7.82992 272.363 9.14992V9.72992H267.173V9.38992C267.173 8.57992 266.933 7.91992 266.443 7.43992C265.953 6.94992 265.303 6.70992 264.493 6.70992H264.313C263.503 6.70992 262.833 6.95992 262.333 7.45992C261.823 7.95992 261.573 8.61992 261.573 9.42992V15.6899C261.573 16.4799 261.823 17.1199 262.333 17.6099C262.843 18.0999 263.503 18.3399 264.313 18.3399H264.493C265.353 18.3399 266.013 18.1799 266.483 17.8499C266.953 17.5199 267.183 16.9699 267.183 16.1999V15.8999H272.373V16.4799C272.373 17.8199 272.043 19.0199 271.383 20.0699C270.723 21.1199 269.813 21.9299 268.663 22.5099C267.513 23.0899 266.253 23.3799 264.893 23.3799H263.853H263.843Z" fill="white"/>
<path d="M281.002 1.98047L287.022 2.01047L294.042 23.0505H288.552L287.362 18.9905H280.612L279.392 23.0505H273.902L281.012 1.98047H281.002ZM283.992 7.78047L281.972 14.1005H285.972L283.992 7.78047Z" fill="white"/>
<path d="M303.044 23.0407H297.854V7.0107H292.664V1.9707H308.234V7.0107H303.044V23.0407Z" fill="white"/>
<path d="M316.475 23.0407H311.285V1.9707H316.475V23.0407Z" fill="white"/>
<path d="M327.164 23.4108C325.824 23.4108 324.574 23.0708 323.424 22.4008C322.274 21.7308 321.364 20.8208 320.694 19.6708C320.024 18.5208 319.684 17.2608 319.684 15.9008V9.03078C319.684 7.71078 320.024 6.47078 320.694 5.32078C321.364 4.17078 322.274 3.25078 323.424 2.57078C324.574 1.89078 325.824 1.55078 327.164 1.55078H328.694C330.034 1.55078 331.284 1.89078 332.434 2.57078C333.584 3.25078 334.494 4.17078 335.164 5.32078C335.834 6.47078 336.174 7.71078 336.174 9.03078V15.9008C336.174 17.2608 335.834 18.5208 335.164 19.6708C334.494 20.8208 333.584 21.7308 332.434 22.4008C331.284 23.0708 330.034 23.4108 328.694 23.4108H327.164ZM328.164 18.5208C329.064 18.5208 329.754 18.2708 330.244 17.7708C330.734 17.2708 330.974 16.5808 330.974 15.7108V9.24078C330.974 8.34078 330.734 7.65078 330.244 7.16078C329.754 6.67078 329.064 6.43078 328.164 6.43078H327.674C326.794 6.43078 326.114 6.67078 325.614 7.16078C325.114 7.65078 324.864 8.34078 324.864 9.24078V15.7108C324.864 16.5908 325.114 17.2708 325.614 17.7708C326.114 18.2708 326.804 18.5208 327.674 18.5208H328.164Z" fill="white"/>
<path d="M344.413 23.0409H339.223V1.97094H342.943L350.573 12.4109L350.603 12.5609V1.96094H355.793V23.0309H352.223L344.433 12.9809L344.403 13.0709V23.0209L344.413 23.0409Z" fill="white"/>
<path d="M4.23 1H63.08C64.86 1 66.31 2.45 66.31 4.23V64.92C66.31 66.7 64.86 68.15 63.08 68.15H4.23C2.45 68.15 1 66.7 1 64.92V4.23C1 2.45 2.45 1 4.23 1Z" fill="#000012" stroke="#009BE4" stroke-width="1.55" stroke-miterlimit="22.93"/>
<path fill-rule="evenodd" clip-rule="evenodd" d="M9.94922 41.5106L17.7192 40.7406C18.1892 43.3406 19.1192 45.2406 20.5492 46.4606C21.9692 47.6806 23.8892 48.2906 26.3092 48.2906C28.8592 48.2906 30.7892 47.7506 32.0792 46.6706C33.3692 45.5906 34.0292 44.3206 34.0292 42.8706C34.0292 41.9306 33.7492 41.1406 33.2092 40.4806C32.6692 39.8306 31.7092 39.2606 30.3592 38.7806C29.4292 38.4506 27.3192 37.8806 24.0192 37.0506C19.7692 35.9906 16.7892 34.6806 15.0692 33.1306C12.6592 30.9506 11.4492 28.3006 11.4492 25.1706C11.4492 23.1606 12.0192 21.2706 13.1492 19.5206C14.2892 17.7706 15.9192 16.4406 18.0592 15.5206C20.1992 14.6006 22.7692 14.1406 25.7992 14.1406C30.7292 14.1406 34.4492 15.2306 36.9292 17.4306C39.4292 19.6206 40.7292 22.5406 40.8592 26.2106L32.8692 26.4906C32.5292 24.4506 31.8092 22.9906 30.6892 22.1006C29.5792 21.2106 27.9092 20.7606 25.6892 20.7606C23.4692 20.7606 21.5992 21.2406 20.2992 22.1906C19.4592 22.8006 19.0392 23.6206 19.0392 24.6506C19.0392 25.5906 19.4292 26.3906 20.2192 27.0506C21.2192 27.9006 23.6492 28.7806 27.5192 29.7006C31.3792 30.6106 34.2392 31.5606 36.0792 32.5406C37.9292 33.5206 39.3792 34.8506 40.4292 36.5506C41.4792 38.2506 41.9992 40.3406 41.9992 42.8306C41.9992 45.0906 41.3792 47.2106 40.1192 49.1806C38.8592 51.1506 37.0892 52.6206 34.7992 53.5806C32.4992 54.5406 29.6392 55.0206 26.2192 55.0206C21.2392 55.0206 17.4092 53.8706 14.7392 51.5706C12.0692 49.2806 10.4792 45.9206 9.95922 41.5306L9.94922 41.5106Z" fill="white"/>
<path fill-rule="evenodd" clip-rule="evenodd" d="M48.6587 45.7114L45.5587 45.1614C45.9087 43.8914 46.5087 42.9614 47.3687 42.3514C48.2187 41.7414 49.4887 41.4414 51.1787 41.4414C52.7087 41.4414 53.8487 41.6214 54.5987 41.9814C55.3487 42.3414 55.8687 42.8014 56.1787 43.3614C56.4787 43.9214 56.6387 44.9414 56.6387 46.4314L56.5887 50.4314C56.5887 51.5714 56.6387 52.4114 56.7487 52.9514C56.8587 53.4914 57.0587 54.0714 57.3587 54.6914H53.9587C53.8687 54.4714 53.7587 54.1314 53.6287 53.6914C53.5787 53.4914 53.5288 53.3514 53.5088 53.2914C52.9288 53.8614 52.2987 54.2914 51.6387 54.5814C50.9687 54.8714 50.2688 55.0114 49.5088 55.0114C48.1788 55.0114 47.1287 54.6514 46.3687 53.9214C45.5987 53.2014 45.2188 52.2814 45.2188 51.1814C45.2188 50.4514 45.3987 49.8014 45.7387 49.2214C46.0887 48.6514 46.5787 48.2114 47.2087 47.9014C47.8387 47.6014 48.7487 47.3314 49.9287 47.1014C51.5287 46.8014 52.6388 46.5214 53.2588 46.2614V45.9114C53.2588 45.2414 53.0987 44.7714 52.7687 44.4814C52.4387 44.2014 51.8187 44.0614 50.9187 44.0614C50.3087 44.0614 49.8287 44.1814 49.4887 44.4314C49.1387 44.6714 48.8687 45.1014 48.6587 45.7114ZM53.2588 48.4814C52.8188 48.6314 52.1287 48.8014 51.1687 49.0014C50.2187 49.2014 49.5987 49.4014 49.2987 49.6014C48.8487 49.9214 48.6287 50.3214 48.6287 50.8114C48.6287 51.3014 48.8087 51.7114 49.1687 52.0514C49.5287 52.4014 49.9787 52.5714 50.5387 52.5714C51.1587 52.5714 51.7487 52.3714 52.3087 51.9614C52.7187 51.6514 52.9987 51.2714 53.1287 50.8214C53.2187 50.5314 53.2588 49.9714 53.2588 49.1514V48.4714V48.4814Z" fill="white"/>
</svg>
