<svg width="518" height="69" viewBox="0 0 518 69" fill="none" xmlns="http://www.w3.org/2000/svg">
<path d="M88.8394 66.8593C87.2394 66.2393 85.8294 65.5393 84.6094 64.7693L87.9094 58.7093C89.2194 59.4493 90.2594 59.9693 91.0294 60.2693C92.9894 60.9793 94.6094 61.3393 95.8894 61.3393C97.1694 61.3393 98.2194 61.1593 99.1394 60.8093C99.6694 60.5993 100.079 60.3293 100.369 59.9893C100.649 59.6493 100.789 59.2993 100.789 58.9393C100.789 58.4093 100.599 57.9893 100.209 57.6893C99.8194 57.3893 99.1894 57.1293 98.2894 56.8893L92.2294 55.3793C89.8494 54.7893 88.0394 53.6793 86.7994 52.0593C85.5494 50.4393 84.9294 48.6693 84.9294 46.7393C84.9294 45.0493 85.3794 43.4693 86.2694 41.9993C87.1594 40.5293 88.4794 39.3393 90.2294 38.4093C91.9794 37.4893 94.1094 37.0293 96.5994 37.0293C98.5894 37.0293 100.509 37.4193 102.349 38.1893C104.249 38.9293 105.869 39.8793 107.209 41.0393L102.979 46.3893C102.769 46.2093 102.389 45.9693 101.819 45.6493C101.259 45.3393 100.619 45.0593 99.8994 44.8293C98.7694 44.3893 97.6094 44.1593 96.4294 44.1593C94.9994 44.1893 93.9694 44.4393 93.3294 44.9193C92.6894 45.3893 92.3694 45.9393 92.3694 46.5693C92.3694 47.1293 92.5794 47.5893 93.0194 47.9493C93.4494 48.3093 93.9894 48.5593 94.6494 48.7093L100.349 50.0493C102.669 50.5793 104.569 51.5593 106.049 52.9693C107.529 54.3793 108.279 56.2693 108.279 58.6493C108.279 60.6993 107.739 62.4693 106.649 63.9493C105.569 65.4393 104.129 66.5593 102.329 67.3393C100.529 68.1093 98.5894 68.4993 96.5194 68.4993C94.1094 68.4993 91.5594 67.9693 88.8594 66.8993L88.8394 66.8593Z" fill="#000012"/>
<path d="M126.089 68.158H118.519V44.768H110.949V37.418H133.669V44.768H126.099V68.158H126.089Z" fill="#000012"/>
<path d="M147.029 68.6888C145.069 68.6888 143.249 68.1988 141.569 67.2188C139.889 66.2388 138.559 64.9088 137.579 63.2288C136.599 61.5488 136.109 59.7188 136.109 57.7288V47.7088C136.109 45.7788 136.599 43.9788 137.579 42.2988C138.559 40.6188 139.889 39.2888 141.569 38.2888C143.249 37.2988 145.069 36.7988 147.029 36.7988H149.259C151.219 36.7988 153.039 37.2988 154.719 38.2888C156.399 39.2888 157.729 40.6188 158.709 42.2988C159.689 43.9788 160.179 45.7788 160.179 47.7088V57.7288C160.179 59.7188 159.689 61.5488 158.709 63.2288C157.729 64.9088 156.399 66.2388 154.719 67.2188C153.039 68.1988 151.219 68.6888 149.259 68.6888H147.029ZM148.489 61.5588C149.799 61.5588 150.809 61.1988 151.519 60.4688C152.229 59.7388 152.589 58.7388 152.589 57.4588V48.0188C152.589 46.7088 152.229 45.6988 151.519 44.9888C150.809 44.2788 149.799 43.9188 148.489 43.9188H147.779C146.499 43.9188 145.499 44.2788 144.769 44.9888C144.039 45.6988 143.679 46.7088 143.679 48.0188V57.4588C143.679 58.7388 144.039 59.7388 144.769 60.4688C145.499 61.1988 146.499 61.5588 147.779 61.5588H148.489Z" fill="#000012"/>
<path d="M172.199 68.158H164.629V37.418H173.089L179.589 52.658L186.089 37.418H194.549V68.158H186.979V52.658L181.589 65.488H177.579L172.189 52.658V68.158H172.199Z" fill="#000012"/>
<path d="M214.651 58.218H199.461V52.918H214.651V58.218Z" fill="#000012"/>
<path d="M227.698 37.4182L236.478 37.4582L246.728 68.1482H238.708L236.968 62.2282H227.128L225.348 68.1482H217.328L227.708 37.4082L227.698 37.4182ZM232.068 45.8782L229.128 55.0982H234.968L232.068 45.8782Z" fill="#000012"/>
<path d="M259.869 68.6388C257.909 68.6388 256.089 68.1488 254.409 67.1688C252.729 66.1888 251.399 64.8588 250.419 63.1788C249.439 61.4988 248.949 59.6688 248.949 57.6788V47.8788C248.949 45.9488 249.439 44.1387 250.419 42.4688C251.399 40.7888 252.729 39.4588 254.409 38.4588C256.089 37.4688 257.909 36.9688 259.869 36.9688H261.389C263.349 36.9688 265.169 37.4688 266.849 38.4588C268.529 39.4588 269.859 40.7888 270.839 42.4688C271.819 44.1487 272.309 45.9488 272.309 47.8788V48.7288H264.739V48.2388C264.739 47.0488 264.379 46.0988 263.669 45.3888C262.959 44.6788 262.009 44.3188 260.819 44.3188H260.549C259.359 44.3188 258.399 44.6788 257.649 45.4088C256.909 46.1388 256.539 47.0988 256.539 48.2788V57.4088C256.539 58.5688 256.909 59.4987 257.649 60.2188C258.389 60.9287 259.359 61.2887 260.549 61.2887H260.819C262.069 61.2887 263.029 61.0488 263.719 60.5788C264.399 60.1088 264.739 59.2988 264.739 58.1688V57.7288H272.309V58.5788C272.309 60.5388 271.829 62.2888 270.859 63.8088C269.889 65.3388 268.569 66.5288 266.899 67.3688C265.219 68.2188 263.389 68.6388 261.399 68.6388H259.879H259.869Z" fill="#000012"/>
<path d="M284.901 37.4182L293.681 37.4582L303.931 68.1482H295.911L294.171 62.2282H284.331L282.551 68.1482H274.531L284.911 37.4082L284.901 37.4182ZM289.271 45.8782L286.331 55.0982H292.171L289.271 45.8782Z" fill="#000012"/>
<path d="M307.041 68.158V37.418H320.231C322.041 37.418 323.731 37.878 325.311 38.798C326.881 39.718 328.131 40.968 329.051 42.538C329.971 44.108 330.431 45.808 330.431 47.618V57.958C330.431 59.858 329.981 61.588 329.091 63.148C328.201 64.708 326.971 65.928 325.411 66.828C323.851 67.718 322.121 68.168 320.221 68.168H307.031L307.041 68.158ZM318.981 61.028C320.411 61.028 321.411 60.738 321.991 60.158C322.571 59.578 322.861 58.578 322.861 57.148V48.418C322.861 46.988 322.571 45.988 321.991 45.408C321.411 44.828 320.411 44.538 318.981 44.538H314.611V61.018H318.981V61.028Z" fill="#000012"/>
<path d="M355.831 68.158H334.891V37.418H355.831V44.768H342.471V49.088H354.721V56.438H342.471V60.808H355.831V68.158Z" fill="#000012"/>
<path d="M367.851 68.158H360.281V37.418H368.741L375.241 52.658L381.741 37.418H390.201V68.158H382.631V52.658L377.241 65.488H373.231L367.841 52.658V68.158H367.851Z" fill="#000012"/>
<path d="M412.358 37.418H420.958L410.848 57.288V68.158H403.278V57.288L393.348 37.418H401.898L407.108 48.018L412.368 37.418H412.358Z" fill="#000012"/>
<path d="M421.199 67.148C420.439 66.388 420.059 65.498 420.059 64.448C420.059 63.398 420.429 62.518 421.169 61.778C421.909 61.038 422.829 60.668 423.929 60.668C424.939 60.668 425.819 61.038 426.559 61.778C427.299 62.518 427.669 63.408 427.669 64.448C427.669 65.488 427.299 66.388 426.559 67.148C425.819 67.908 424.939 68.288 423.929 68.288C422.859 68.288 421.949 67.908 421.189 67.148H421.199Z" fill="#000012"/>
<path d="M442.608 68.6388C440.648 68.6388 438.828 68.1488 437.148 67.1688C435.468 66.1888 434.138 64.8588 433.158 63.1788C432.178 61.4988 431.688 59.6688 431.688 57.6788V47.8788C431.688 45.9488 432.178 44.1387 433.158 42.4688C434.138 40.7888 435.468 39.4588 437.148 38.4588C438.828 37.4688 440.648 36.9688 442.608 36.9688H444.118C446.078 36.9688 447.898 37.4688 449.578 38.4588C451.258 39.4588 452.588 40.7888 453.568 42.4688C454.548 44.1487 455.038 45.9488 455.038 47.8788V48.7288H447.467V48.2388C447.467 47.0488 447.108 46.0988 446.398 45.3888C445.688 44.6788 444.738 44.3188 443.548 44.3188H443.278C442.088 44.3188 441.128 44.6788 440.378 45.4088C439.638 46.1388 439.268 47.0988 439.268 48.2788V57.4088C439.268 58.5688 439.638 59.4987 440.378 60.2188C441.118 60.9287 442.088 61.2887 443.278 61.2887H443.548C444.798 61.2887 445.758 61.0488 446.448 60.5788C447.128 60.1088 447.467 59.2988 447.467 58.1688V57.7288H455.038V58.5788C455.038 60.5388 454.558 62.2888 453.588 63.8088C452.618 65.3388 451.298 66.5288 449.628 67.3688C447.948 68.2188 446.118 68.6388 444.128 68.6388H442.618H442.608Z" fill="#000012"/>
<path d="M469.51 68.6888C467.55 68.6888 465.73 68.1988 464.05 67.2188C462.37 66.2388 461.04 64.9088 460.06 63.2288C459.08 61.5488 458.59 59.7188 458.59 57.7288V47.7088C458.59 45.7788 459.08 43.9788 460.06 42.2988C461.04 40.6188 462.37 39.2888 464.05 38.2888C465.73 37.2988 467.55 36.7988 469.51 36.7988H471.74C473.7 36.7988 475.52 37.2988 477.2 38.2888C478.88 39.2888 480.21 40.6188 481.19 42.2988C482.17 43.9788 482.66 45.7788 482.66 47.7088V57.7288C482.66 59.7188 482.17 61.5488 481.19 63.2288C480.21 64.9088 478.88 66.2388 477.2 67.2188C475.52 68.1988 473.7 68.6888 471.74 68.6888H469.51ZM470.98 61.5588C472.29 61.5588 473.3 61.1988 474.01 60.4688C474.72 59.7388 475.08 58.7388 475.08 57.4588V48.0188C475.08 46.7088 474.72 45.6988 474.01 44.9888C473.3 44.2788 472.29 43.9188 470.98 43.9188H470.27C468.99 43.9188 467.99 44.2788 467.26 44.9888C466.53 45.6988 466.17 46.7088 466.17 48.0188V57.4588C466.17 58.7388 466.53 59.7388 467.26 60.4688C467.99 61.1988 468.99 61.5588 470.27 61.5588H470.98Z" fill="#000012"/>
<path d="M494.679 68.158H487.109V37.418H495.569L502.069 52.658L508.569 37.418H517.029V68.158H509.459V52.658L504.069 65.488H500.059L494.669 52.658V68.158H494.679Z" fill="#000012"/>
<path d="M84.6116 23.0485V1.97852H93.6516C94.8916 1.97852 96.0516 2.29852 97.1316 2.92852C98.2116 3.55852 99.0616 4.41852 99.6916 5.48852C100.322 6.56852 100.642 7.72852 100.642 8.96852V16.0485C100.642 17.3485 100.332 18.5385 99.7216 19.6085C99.1116 20.6785 98.2716 21.5185 97.2016 22.1285C96.1316 22.7385 94.9516 23.0485 93.6416 23.0485H84.6016H84.6116ZM92.7916 18.1585C93.7716 18.1585 94.4516 17.9585 94.8516 17.5585C95.2516 17.1585 95.4516 16.4785 95.4516 15.4985V9.51852C95.4516 8.53852 95.2516 7.85852 94.8516 7.45852C94.4516 7.05852 93.7716 6.85852 92.7916 6.85852H89.8016V18.1585H92.7916Z" fill="#000012"/>
<path d="M118.041 23.0485H103.691V1.97852H118.041V7.01852H108.881V9.97852H117.281V15.0185H108.881V18.0085H118.041V23.0485Z" fill="#000012"/>
<path d="M126.292 23.0487H121.102V1.97875H124.832L132.462 12.4188L132.492 12.5687V1.96875H137.682V23.0387H134.112L126.322 12.9888L126.292 13.0788V23.0288V23.0487Z" fill="#000012"/>
<path d="M150.962 23.0485H145.772V7.01852H140.582V1.97852H156.152V7.01852H150.962V23.0485Z" fill="#000012"/>
<path d="M162.193 1.97852L168.202 2.00852L175.223 23.0485H169.723L168.533 18.9885H161.783L160.562 23.0485H155.062L162.173 1.97852H162.193ZM165.182 7.77852L163.163 14.0985H167.163L165.182 7.77852Z" fill="#000012"/>
<path d="M190.801 23.0485H177.371V1.97852H182.561V18.1585H190.801V23.0485Z" fill="#000012"/>
<path d="M214.772 23.0485H200.422V1.97852H214.772V7.01852H205.612V9.97852H214.012V15.0185H205.612V18.0085H214.772V23.0485Z" fill="#000012"/>
<path d="M217.822 23.0485V1.97852H226.862C228.102 1.97852 229.262 2.29852 230.342 2.92852C231.422 3.55852 232.272 4.41852 232.902 5.48852C233.532 6.56852 233.852 7.72852 233.852 8.96852V16.0485C233.852 17.3485 233.542 18.5385 232.932 19.6085C232.322 20.6785 231.482 21.5185 230.412 22.1285C229.342 22.7385 228.162 23.0485 226.852 23.0485H217.812H217.822ZM226.002 18.1585C226.982 18.1585 227.662 17.9585 228.062 17.5585C228.463 17.1585 228.662 16.4785 228.662 15.4985V9.51852C228.662 8.53852 228.463 7.85852 228.062 7.45852C227.662 7.05852 226.982 6.85852 226.002 6.85852H223.012V18.1585H226.002Z" fill="#000012"/>
<path d="M244.382 23.1985C243.042 23.1985 241.792 22.8585 240.642 22.1885C239.492 21.5185 238.582 20.6085 237.912 19.4585C237.242 18.3085 236.902 17.0485 236.902 15.6885V1.97852H242.092V15.3485C242.092 16.1585 242.352 16.8385 242.882 17.3685C243.412 17.8985 244.082 18.1585 244.892 18.1585H245.292C246.102 18.1585 246.782 17.8985 247.312 17.3685C247.842 16.8385 248.102 16.1685 248.102 15.3485V1.97852H253.292V15.6885C253.292 17.0485 252.952 18.3085 252.282 19.4585C251.612 20.6085 250.702 21.5185 249.552 22.1885C248.402 22.8585 247.152 23.1985 245.812 23.1985H244.382Z" fill="#000012"/>
<path d="M263.832 23.378C262.492 23.378 261.242 23.038 260.092 22.368C258.942 21.698 258.032 20.788 257.362 19.638C256.692 18.488 256.352 17.228 256.352 15.868V9.14797C256.352 7.82797 256.692 6.58797 257.362 5.43797C258.032 4.28797 258.942 3.36797 260.092 2.68797C261.242 2.00797 262.492 1.66797 263.832 1.66797H264.872C266.212 1.66797 267.462 2.00797 268.612 2.68797C269.762 3.36797 270.672 4.28797 271.342 5.43797C272.012 6.58797 272.352 7.82797 272.352 9.14797V9.72797H267.162V9.38797C267.162 8.57797 266.922 7.91797 266.432 7.43797C265.942 6.94797 265.292 6.70797 264.482 6.70797H264.302C263.492 6.70797 262.822 6.95797 262.322 7.45797C261.812 7.95797 261.562 8.61797 261.562 9.42797V15.688C261.562 16.478 261.812 17.118 262.322 17.608C262.832 18.098 263.492 18.338 264.302 18.338H264.482C265.342 18.338 266.002 18.178 266.472 17.848C266.942 17.518 267.172 16.968 267.172 16.198V15.898H272.362V16.478C272.362 17.818 272.032 19.018 271.372 20.068C270.712 21.118 269.802 21.928 268.652 22.508C267.502 23.088 266.242 23.378 264.882 23.378H263.842H263.832Z" fill="#000012"/>
<path d="M280.991 1.97852L287.011 2.00852L294.031 23.0485H288.541L287.351 18.9885H280.601L279.381 23.0485H273.891L281.001 1.97852H280.991ZM283.981 7.77852L281.961 14.0985H285.961L283.981 7.77852Z" fill="#000012"/>
<path d="M303.032 23.0485H297.842V7.01852H292.652V1.97852H308.222V7.01852H303.032V23.0485Z" fill="#000012"/>
<path d="M316.471 23.0485H311.281V1.97852H316.471V23.0485Z" fill="#000012"/>
<path d="M327.152 23.4088C325.812 23.4088 324.562 23.0688 323.412 22.3988C322.262 21.7288 321.352 20.8188 320.682 19.6688C320.012 18.5188 319.672 17.2588 319.672 15.8988V9.02883C319.672 7.70883 320.012 6.46883 320.682 5.31883C321.352 4.16883 322.262 3.24883 323.412 2.56883C324.562 1.88883 325.812 1.54883 327.152 1.54883H328.682C330.022 1.54883 331.272 1.88883 332.422 2.56883C333.572 3.24883 334.482 4.16883 335.152 5.31883C335.822 6.46883 336.162 7.70883 336.162 9.02883V15.8988C336.162 17.2588 335.822 18.5188 335.152 19.6688C334.482 20.8188 333.572 21.7288 332.422 22.3988C331.272 23.0688 330.022 23.4088 328.682 23.4088H327.152ZM328.162 18.5288C329.062 18.5288 329.752 18.2788 330.242 17.7788C330.732 17.2788 330.972 16.5888 330.972 15.7188V9.24883C330.972 8.34883 330.732 7.65883 330.242 7.16883C329.752 6.67883 329.062 6.43883 328.162 6.43883H327.672C326.792 6.43883 326.112 6.67883 325.612 7.16883C325.112 7.65883 324.862 8.34883 324.862 9.24883V15.7188C324.862 16.5988 325.112 17.2788 325.612 17.7788C326.112 18.2788 326.802 18.5288 327.672 18.5288H328.162Z" fill="#000012"/>
<path d="M344.401 23.0487H339.211V1.97875H342.931L350.561 12.4188L350.591 12.5687V1.96875H355.781V23.0387H352.211L344.421 12.9888L344.391 13.0788V23.0288L344.401 23.0487Z" fill="#000012"/>
<path d="M63.07 1H4.23C2.44612 1 1 2.44612 1 4.23V64.91C1 66.6939 2.44612 68.14 4.23 68.14H63.07C64.8539 68.14 66.3 66.6939 66.3 64.91V4.23C66.3 2.44612 64.8539 1 63.07 1Z" fill="#000012" stroke="#009BE4" stroke-width="1.55" stroke-miterlimit="22.93"/>
<path fill-rule="evenodd" clip-rule="evenodd" d="M9.94922 41.5106L17.7192 40.7406C18.1892 43.3406 19.1192 45.2406 20.5492 46.4606C21.9692 47.6806 23.8892 48.2906 26.3092 48.2906C28.8592 48.2906 30.7892 47.7506 32.0792 46.6706C33.3692 45.5906 34.0292 44.3206 34.0292 42.8706C34.0292 41.9306 33.7492 41.1406 33.2092 40.4806C32.6692 39.8306 31.7092 39.2606 30.3592 38.7806C29.4292 38.4506 27.3192 37.8806 24.0192 37.0506C19.7692 35.9906 16.7892 34.6806 15.0692 33.1306C12.6592 30.9506 11.4492 28.3006 11.4492 25.1706C11.4492 23.1606 12.0192 21.2706 13.1492 19.5206C14.2892 17.7706 15.9192 16.4406 18.0592 15.5206C20.1992 14.6006 22.7692 14.1406 25.7992 14.1406C30.7292 14.1406 34.4492 15.2306 36.9292 17.4306C39.4292 19.6206 40.7292 22.5406 40.8592 26.2106L32.8692 26.4906C32.5292 24.4506 31.8092 22.9906 30.6892 22.1006C29.5792 21.2106 27.9092 20.7606 25.6892 20.7606C23.4692 20.7606 21.5992 21.2406 20.2992 22.1906C19.4592 22.8006 19.0392 23.6206 19.0392 24.6506C19.0392 25.5906 19.4292 26.3906 20.2192 27.0506C21.2192 27.9006 23.6492 28.7806 27.5192 29.7006C31.3792 30.6106 34.2392 31.5606 36.0792 32.5406C37.9292 33.5206 39.3792 34.8506 40.4292 36.5506C41.4792 38.2506 41.9992 40.3406 41.9992 42.8306C41.9992 45.0906 41.3792 47.2106 40.1192 49.1806C38.8592 51.1506 37.0892 52.6206 34.7992 53.5806C32.4992 54.5406 29.6392 55.0206 26.2192 55.0206C21.2392 55.0206 17.4092 53.8706 14.7392 51.5706C12.0692 49.2806 10.4792 45.9206 9.95922 41.5306L9.94922 41.5106Z" fill="white"/>
<path fill-rule="evenodd" clip-rule="evenodd" d="M48.6587 45.7114L45.5587 45.1614C45.9087 43.8914 46.5088 42.9614 47.3688 42.3514C48.2188 41.7414 49.4887 41.4414 51.1787 41.4414C52.7087 41.4414 53.8487 41.6214 54.5987 41.9814C55.3487 42.3414 55.8687 42.8014 56.1787 43.3614C56.4787 43.9214 56.6387 44.9414 56.6387 46.4314L56.5887 50.4314C56.5887 51.5714 56.6387 52.4114 56.7487 52.9514C56.8587 53.4914 57.0587 54.0714 57.3587 54.6914H53.9587C53.8687 54.4714 53.7587 54.1314 53.6287 53.6914C53.5787 53.4914 53.5288 53.3514 53.5088 53.2914C52.9288 53.8614 52.2987 54.2914 51.6387 54.5814C50.9687 54.8714 50.2688 55.0114 49.5088 55.0114C48.1788 55.0114 47.1288 54.6514 46.3688 53.9214C45.5988 53.2014 45.2188 52.2814 45.2188 51.1814C45.2188 50.4514 45.3987 49.8014 45.7387 49.2214C46.0887 48.6514 46.5787 48.2114 47.2087 47.9014C47.8387 47.6014 48.7487 47.3314 49.9287 47.1014C51.5287 46.8014 52.6388 46.5214 53.2588 46.2614V45.9114C53.2588 45.2414 53.0987 44.7714 52.7687 44.4814C52.4387 44.2014 51.8187 44.0614 50.9187 44.0614C50.3087 44.0614 49.8287 44.1814 49.4887 44.4314C49.1387 44.6714 48.8687 45.1014 48.6587 45.7114ZM53.2588 48.4914C52.8188 48.6414 52.1287 48.8114 51.1687 49.0114C50.2187 49.2114 49.5988 49.4114 49.2988 49.6114C48.8488 49.9314 48.6287 50.3314 48.6287 50.8214C48.6287 51.3114 48.8087 51.7214 49.1687 52.0614C49.5287 52.4114 49.9787 52.5814 50.5387 52.5814C51.1587 52.5814 51.7487 52.3814 52.3087 51.9714C52.7187 51.6614 52.9987 51.2814 53.1287 50.8314C53.2187 50.5414 53.2588 49.9814 53.2588 49.1614V48.4814V48.4914Z" fill="white"/>
</svg>
