<?xml version="1.0" encoding="UTF-8"?>
<svg id="_1" data-name="1" xmlns="http://www.w3.org/2000/svg" version="1.1" viewBox="0 0 598.33 132.41">
  <defs>
    <style>
      .cls-1 {
        fill: #fff;
        fill-rule: evenodd;
      }

      .cls-1, .cls-2 {
        stroke-width: 0px;
      }

      .cls-2, .cls-3 {
        fill: #000012;
      }

      .cls-3 {
        stroke: #009be4;
        stroke-miterlimit: 22.93;
        stroke-width: 1.55px;
      }
    </style>
  </defs>
  <g>
    <path class="cls-2" d="M131.7,105.16c-1.6-.62-3.01-1.32-4.23-2.09l3.3-6.06c1.31.74,2.35,1.26,3.12,1.56,1.96.71,3.58,1.07,4.86,1.07s2.33-.18,3.25-.53c.53-.21.94-.48,1.23-.82.28-.34.42-.69.42-1.05,0-.53-.19-.95-.58-1.25-.39-.3-1.02-.56-1.92-.8l-6.06-1.51c-2.38-.59-4.19-1.7-5.43-3.32-1.25-1.62-1.87-3.39-1.87-5.32,0-1.69.45-3.27,1.34-4.74.89-1.47,2.21-2.66,3.96-3.59,1.75-.92,3.88-1.38,6.37-1.38,1.99,0,3.91.39,5.75,1.16,1.9.74,3.52,1.69,4.86,2.85l-4.23,5.35c-.21-.18-.59-.42-1.16-.74-.56-.31-1.2-.59-1.92-.82-1.13-.44-2.29-.67-3.47-.67-1.43.03-2.46.28-3.1.76-.64.47-.96,1.02-.96,1.65,0,.56.21,1.02.65,1.38.43.36.97.61,1.63.76l5.7,1.34c2.32.53,4.22,1.51,5.7,2.92,1.48,1.41,2.23,3.3,2.23,5.68,0,2.05-.54,3.82-1.63,5.3-1.08,1.49-2.52,2.61-4.32,3.39-1.8.77-3.74,1.16-5.81,1.16-2.41,0-4.96-.53-7.66-1.6Z"/>
    <path class="cls-2" d="M168.95,106.46h-7.57v-23.39h-7.57v-7.35h22.72v7.35h-7.57v23.39Z"/>
    <path class="cls-2" d="M189.89,106.99c-1.96,0-3.78-.49-5.46-1.47-1.68-.98-3.01-2.31-3.99-3.99-.98-1.68-1.47-3.51-1.47-5.5v-10.02c0-1.93.49-3.73,1.47-5.41.98-1.68,2.31-3.01,3.99-4.01,1.68-.99,3.5-1.49,5.46-1.49h2.23c1.96,0,3.78.5,5.46,1.49,1.68,1,3.01,2.33,3.99,4.01.98,1.68,1.47,3.48,1.47,5.41v10.02c0,1.99-.49,3.82-1.47,5.5-.98,1.68-2.31,3.01-3.99,3.99-1.68.98-3.5,1.47-5.46,1.47h-2.23ZM191.35,99.86c1.31,0,2.32-.36,3.03-1.09.71-.73,1.07-1.73,1.07-3.01v-9.44c0-1.31-.36-2.32-1.07-3.03-.71-.71-1.72-1.07-3.03-1.07h-.71c-1.28,0-2.28.36-3.01,1.07-.73.71-1.09,1.72-1.09,3.03v9.44c0,1.28.36,2.28,1.09,3.01.73.73,1.73,1.09,3.01,1.09h.71Z"/>
    <path class="cls-2" d="M215.06,106.46h-7.57v-30.74h8.46l6.5,15.24,6.5-15.24h8.46v30.74h-7.57v-15.5l-5.39,12.83h-4.01l-5.39-12.83v15.5Z"/>
    <path class="cls-2" d="M257.51,96.52h-15.19v-5.3h15.19v5.3Z"/>
    <path class="cls-2" d="M270.56,75.72l8.78.04,10.25,30.69h-8.02l-1.74-5.92h-9.84l-1.78,5.92h-8.02l10.38-30.74ZM274.93,84.18l-2.94,9.22h5.84l-2.9-9.22Z"/>
    <path class="cls-2" d="M302.73,106.94c-1.96,0-3.78-.49-5.46-1.47-1.68-.98-3.01-2.31-3.99-3.99-.98-1.68-1.47-3.51-1.47-5.5v-9.8c0-1.93.49-3.74,1.47-5.41.98-1.68,2.31-3.01,3.99-4.01,1.68-.99,3.5-1.49,5.46-1.49h1.52c1.96,0,3.78.5,5.46,1.49,1.68,1,3.01,2.33,3.99,4.01.98,1.68,1.47,3.48,1.47,5.41v.85h-7.57v-.49c0-1.19-.36-2.14-1.07-2.85-.71-.71-1.66-1.07-2.85-1.07h-.27c-1.19,0-2.15.36-2.9,1.09-.74.73-1.11,1.69-1.11,2.87v9.13c0,1.16.37,2.09,1.11,2.81.74.71,1.71,1.07,2.9,1.07h.27c1.25,0,2.21-.24,2.9-.71.68-.47,1.02-1.28,1.02-2.41v-.44h7.57v.85c0,1.96-.48,3.71-1.45,5.23-.97,1.53-2.29,2.72-3.96,3.56-1.68.85-3.51,1.27-5.5,1.27h-1.52Z"/>
    <path class="cls-2" d="M327.76,75.72l8.78.04,10.25,30.69h-8.02l-1.74-5.92h-9.84l-1.78,5.92h-8.02l10.38-30.74ZM332.13,84.18l-2.94,9.22h5.84l-2.9-9.22Z"/>
    <path class="cls-2" d="M349.9,106.46v-30.74h13.19c1.81,0,3.5.46,5.08,1.38,1.57.92,2.82,2.17,3.74,3.74.92,1.57,1.38,3.27,1.38,5.08v10.34c0,1.9-.45,3.63-1.34,5.19-.89,1.56-2.12,2.78-3.68,3.68-1.56.89-3.29,1.34-5.19,1.34h-13.19ZM361.84,99.33c1.43,0,2.43-.29,3.01-.87.58-.58.87-1.58.87-3.01v-8.73c0-1.43-.29-2.43-.87-3.01-.58-.58-1.58-.87-3.01-.87h-4.37v16.48h4.37Z"/>
    <path class="cls-2" d="M398.69,106.46h-20.94v-30.74h20.94v7.35h-13.36v4.32h12.25v7.35h-12.25v4.37h13.36v7.35Z"/>
    <path class="cls-2" d="M410.71,106.46h-7.57v-30.74h8.46l6.5,15.24,6.5-15.24h8.46v30.74h-7.57v-15.5l-5.39,12.83h-4.01l-5.39-12.83v15.5Z"/>
    <path class="cls-2" d="M455.22,75.72h8.6l-10.11,19.87v10.87h-7.57v-10.87l-9.93-19.87h8.55l5.21,10.6,5.26-10.6Z"/>
    <path class="cls-2" d="M464.06,105.45c-.76-.76-1.14-1.65-1.14-2.7s.37-1.93,1.11-2.67c.74-.74,1.66-1.11,2.76-1.11,1.01,0,1.89.37,2.63,1.11.74.74,1.11,1.63,1.11,2.67s-.37,1.94-1.11,2.7c-.74.76-1.62,1.14-2.63,1.14-1.07,0-1.98-.38-2.74-1.14Z"/>
    <path class="cls-2" d="M485.47,106.94c-1.96,0-3.78-.49-5.46-1.47-1.68-.98-3.01-2.31-3.99-3.99-.98-1.68-1.47-3.51-1.47-5.5v-9.8c0-1.93.49-3.74,1.47-5.41.98-1.68,2.31-3.01,3.99-4.01,1.68-.99,3.5-1.49,5.46-1.49h1.51c1.96,0,3.78.5,5.46,1.49,1.68,1,3.01,2.33,3.99,4.01.98,1.68,1.47,3.48,1.47,5.41v.85h-7.57v-.49c0-1.19-.36-2.14-1.07-2.85s-1.66-1.07-2.85-1.07h-.27c-1.19,0-2.15.36-2.9,1.09-.74.73-1.11,1.69-1.11,2.87v9.13c0,1.16.37,2.09,1.11,2.81.74.71,1.71,1.07,2.9,1.07h.27c1.25,0,2.21-.24,2.9-.71.68-.47,1.02-1.28,1.02-2.41v-.44h7.57v.85c0,1.96-.48,3.71-1.45,5.23-.97,1.53-2.29,2.72-3.96,3.56-1.68.85-3.51,1.27-5.5,1.27h-1.51Z"/>
    <path class="cls-2" d="M512.37,106.99c-1.96,0-3.78-.49-5.46-1.47-1.68-.98-3.01-2.31-3.99-3.99-.98-1.68-1.47-3.51-1.47-5.5v-10.02c0-1.93.49-3.73,1.47-5.41.98-1.68,2.31-3.01,3.99-4.01,1.68-.99,3.5-1.49,5.46-1.49h2.23c1.96,0,3.78.5,5.46,1.49,1.68,1,3.01,2.33,3.99,4.01.98,1.68,1.47,3.48,1.47,5.41v10.02c0,1.99-.49,3.82-1.47,5.5-.98,1.68-2.31,3.01-3.99,3.99s-3.5,1.47-5.46,1.47h-2.23ZM513.84,99.86c1.31,0,2.32-.36,3.03-1.09.71-.73,1.07-1.73,1.07-3.01v-9.44c0-1.31-.36-2.32-1.07-3.03-.71-.71-1.72-1.07-3.03-1.07h-.71c-1.28,0-2.28.36-3.01,1.07s-1.09,1.72-1.09,3.03v9.44c0,1.28.36,2.28,1.09,3.01.73.73,1.73,1.09,3.01,1.09h.71Z"/>
    <path class="cls-2" d="M537.54,106.46h-7.57v-30.74h8.46l6.5,15.24,6.5-15.24h8.46v30.74h-7.57v-15.5l-5.39,12.83h-4.01l-5.39-12.83v15.5Z"/>
  </g>
  <g>
    <path class="cls-2" d="M127.47,61.35v-21.07h9.04c1.24,0,2.4.32,3.48.95,1.08.63,1.93,1.49,2.56,2.56.63,1.08.95,2.24.95,3.48v7.08c0,1.3-.31,2.49-.92,3.56-.61,1.07-1.45,1.91-2.52,2.52-1.07.61-2.25.92-3.56.92h-9.04ZM135.65,56.46c.98,0,1.66-.2,2.06-.6.4-.4.6-1.08.6-2.06v-5.98c0-.98-.2-1.66-.6-2.06-.4-.4-1.08-.6-2.06-.6h-2.99v11.3h2.99Z"/>
    <path class="cls-2" d="M160.9,61.35h-14.35v-21.07h14.35v5.04h-9.16v2.96h8.4v5.04h-8.4v2.99h9.16v5.04Z"/>
    <path class="cls-2" d="M169.15,61.35h-5.19v-21.07h3.73l7.63,10.44.03.15v-10.6h5.19v21.07h-3.57l-7.79-10.05-.03.09v9.95Z"/>
    <path class="cls-2" d="M193.82,61.35h-5.19v-16.03h-5.19v-5.04h15.57v5.04h-5.19v16.03Z"/>
    <path class="cls-2" d="M205.05,40.28l6.01.03,7.02,21.04h-5.5l-1.19-4.06h-6.75l-1.22,4.06h-5.5l7.11-21.07ZM208.04,46.08l-2.02,6.32h4l-1.98-6.32Z"/>
    <path class="cls-2" d="M233.66,61.35h-13.43v-21.07h5.19v16.18h8.24v4.89Z"/>
    <path class="cls-2" d="M257.63,61.35h-14.35v-21.07h14.35v5.04h-9.16v2.96h8.4v5.04h-8.4v2.99h9.16v5.04Z"/>
    <path class="cls-2" d="M260.68,61.35v-21.07h9.04c1.24,0,2.4.32,3.48.95,1.08.63,1.93,1.49,2.56,2.56.63,1.08.95,2.24.95,3.48v7.08c0,1.3-.31,2.49-.92,3.56-.61,1.07-1.45,1.91-2.52,2.52-1.07.61-2.25.92-3.56.92h-9.04ZM268.86,56.46c.98,0,1.66-.2,2.06-.6.4-.4.6-1.08.6-2.06v-5.98c0-.98-.2-1.66-.6-2.06-.4-.4-1.08-.6-2.06-.6h-2.99v11.3h2.99Z"/>
    <path class="cls-2" d="M287.24,61.5c-1.34,0-2.59-.34-3.74-1.01-1.15-.67-2.06-1.58-2.73-2.73-.67-1.15-1.01-2.41-1.01-3.77v-13.71h5.19v13.37c0,.81.26,1.49.79,2.02.53.53,1.2.79,2.01.79h.4c.81,0,1.49-.26,2.02-.79.53-.53.79-1.2.79-2.02v-13.37h5.19v13.71c0,1.36-.34,2.62-1.01,3.77-.67,1.15-1.58,2.06-2.73,2.73-1.15.67-2.4,1.01-3.74,1.01h-1.43Z"/>
    <path class="cls-2" d="M306.69,61.68c-1.34,0-2.59-.34-3.74-1.01-1.15-.67-2.06-1.58-2.73-2.73-.67-1.15-1.01-2.41-1.01-3.77v-6.72c0-1.32.34-2.56,1.01-3.71.67-1.15,1.58-2.07,2.73-2.75,1.15-.68,2.4-1.02,3.74-1.02h1.04c1.34,0,2.59.34,3.74,1.02,1.15.68,2.06,1.6,2.73,2.75.67,1.15,1.01,2.39,1.01,3.71v.58h-5.19v-.34c0-.81-.24-1.47-.73-1.95-.49-.49-1.14-.73-1.95-.73h-.18c-.81,0-1.48.25-1.98.75-.51.5-.76,1.16-.76,1.97v6.26c0,.79.25,1.43.76,1.92.51.49,1.17.73,1.98.73h.18c.86,0,1.52-.16,1.99-.49.47-.33.7-.88.7-1.65v-.3h5.19v.58c0,1.34-.33,2.54-.99,3.59-.66,1.05-1.57,1.86-2.72,2.44-1.15.58-2.41.87-3.77.87h-1.04Z"/>
    <path class="cls-2" d="M323.85,40.28l6.02.03,7.02,21.04h-5.49l-1.19-4.06h-6.75l-1.22,4.06h-5.49l7.11-21.07ZM326.84,46.08l-2.02,6.32h4l-1.98-6.32Z"/>
    <path class="cls-2" d="M345.89,61.35h-5.19v-16.03h-5.19v-5.04h15.57v5.04h-5.19v16.03Z"/>
    <path class="cls-2" d="M359.33,61.35h-5.19v-21.07h5.19v21.07Z"/>
    <path class="cls-2" d="M370.01,61.71c-1.34,0-2.59-.34-3.74-1.01-1.15-.67-2.06-1.58-2.73-2.73-.67-1.15-1.01-2.41-1.01-3.77v-6.87c0-1.32.34-2.56,1.01-3.71.67-1.15,1.58-2.07,2.73-2.75,1.15-.68,2.4-1.02,3.74-1.02h1.53c1.34,0,2.59.34,3.74,1.02,1.15.68,2.06,1.6,2.73,2.75.67,1.15,1.01,2.39,1.01,3.71v6.87c0,1.36-.34,2.62-1.01,3.77-.67,1.15-1.58,2.06-2.73,2.73-1.15.67-2.4,1.01-3.74,1.01h-1.53ZM371.02,56.83c.9,0,1.59-.25,2.08-.75.49-.5.73-1.19.73-2.06v-6.47c0-.9-.24-1.59-.73-2.08-.49-.49-1.18-.73-2.08-.73h-.49c-.88,0-1.56.24-2.06.73-.5.49-.75,1.18-.75,2.08v6.47c0,.88.25,1.56.75,2.06s1.19.75,2.06.75h.49Z"/>
    <path class="cls-2" d="M387.26,61.35h-5.19v-21.07h3.72l7.63,10.44.03.15v-10.6h5.19v21.07h-3.57l-7.79-10.05-.03.09v9.95Z"/>
  </g>
  <g>
    <rect class="cls-3" x="43.86" y="39.3" width="65.3" height="67.14" rx="3.23" ry="3.23"/>
    <g>
      <path class="cls-1" d="M52.81,79.81l7.77-.77c.47,2.6,1.4,4.5,2.83,5.72,1.42,1.22,3.34,1.83,5.76,1.83,2.55,0,4.48-.54,5.77-1.62,1.29-1.08,1.95-2.35,1.95-3.8,0-.94-.28-1.73-.82-2.39-.54-.65-1.5-1.22-2.85-1.7-.93-.33-3.04-.9-6.34-1.73-4.25-1.06-7.23-2.37-8.95-3.92-2.41-2.18-3.62-4.83-3.62-7.96,0-2.01.57-3.9,1.7-5.65,1.14-1.75,2.77-3.08,4.91-4,2.14-.92,4.71-1.38,7.74-1.38,4.93,0,8.65,1.09,11.13,3.29,2.5,2.19,3.8,5.11,3.93,8.78l-7.99.28c-.34-2.04-1.06-3.5-2.18-4.39-1.11-.89-2.78-1.34-5-1.34s-4.09.48-5.39,1.43c-.84.61-1.26,1.43-1.26,2.46,0,.94.39,1.74,1.18,2.4,1,.85,3.43,1.73,7.3,2.65,3.86.91,6.72,1.86,8.56,2.84,1.85.98,3.3,2.31,4.35,4.01,1.05,1.7,1.57,3.79,1.57,6.28,0,2.26-.62,4.38-1.88,6.35s-3.03,3.44-5.32,4.4c-2.3.96-5.16,1.44-8.58,1.44-4.98,0-8.81-1.15-11.48-3.45-2.67-2.29-4.26-5.65-4.78-10.04Z"/>
      <path class="cls-1" d="M91.52,84.01l-3.1-.55c.35-1.27.95-2.2,1.81-2.81.85-.61,2.12-.91,3.81-.91,1.53,0,2.67.18,3.42.54.75.36,1.27.82,1.58,1.38.3.56.46,1.58.46,3.07l-.05,4c0,1.14.05,1.98.16,2.52.11.54.31,1.12.61,1.74h-3.4c-.09-.22-.2-.56-.33-1-.05-.2-.1-.34-.12-.4-.58.57-1.21,1-1.87,1.29-.67.29-1.37.43-2.13.43-1.33,0-2.38-.36-3.14-1.09-.77-.72-1.15-1.64-1.15-2.74,0-.73.18-1.38.52-1.96.35-.57.84-1.01,1.47-1.32.63-.3,1.54-.57,2.72-.8,1.6-.3,2.71-.58,3.33-.84v-.35c0-.67-.16-1.14-.49-1.43-.33-.28-.95-.42-1.85-.42-.61,0-1.09.12-1.43.37-.35.24-.62.67-.83,1.28h0ZM96.12,86.79c-.44.15-1.13.32-2.09.52-.95.2-1.57.4-1.87.6-.45.32-.67.72-.67,1.21s.18.9.54,1.24c.36.35.81.52,1.37.52.62,0,1.21-.2,1.77-.61.41-.31.69-.69.82-1.14.09-.29.13-.85.13-1.67v-.68Z"/>
    </g>
  </g>
</svg>