<?xml version="1.0" encoding="UTF-8"?>
<svg id="_1" data-name="1" xmlns="http://www.w3.org/2000/svg" version="1.1" viewBox="0 0 89.78 92.24">
  <defs>
    <style>
      .cls-1 {
        fill: #fff;
        fill-rule: evenodd;
        stroke-width: 0px;
      }

      .cls-2 {
        fill: #000012;
        stroke: #009be4;
        stroke-miterlimit: 22.93;
        stroke-width: 1.55px;
      }
    </style>
  </defs>
  <rect class="cls-2" x="11.27" y="13.54" width="65.3" height="67.14" rx="3.23" ry="3.23"/>
  <g>
    <path class="cls-1" d="M20.22,54.04l7.77-.77c.47,2.6,1.4,4.5,2.83,5.72,1.42,1.22,3.34,1.83,5.76,1.83,2.55,0,4.48-.54,5.77-1.62,1.29-1.08,1.95-2.35,1.95-3.8,0-.94-.28-1.73-.82-2.39-.54-.65-1.5-1.22-2.85-1.7-.93-.33-3.04-.9-6.34-1.73-4.25-1.06-7.23-2.37-8.95-3.92-2.41-2.18-3.62-4.83-3.62-7.96,0-2.01.57-3.9,1.7-5.65,1.14-1.75,2.77-3.08,4.91-4,2.14-.92,4.71-1.38,7.74-1.38,4.93,0,8.65,1.09,11.13,3.29,2.5,2.19,3.8,5.11,3.93,8.78l-7.99.28c-.34-2.04-1.06-3.5-2.18-4.39-1.11-.89-2.78-1.34-5-1.34s-4.09.48-5.39,1.43c-.84.61-1.26,1.43-1.26,2.46,0,.94.39,1.74,1.18,2.4,1,.85,3.43,1.73,7.3,2.65,3.86.91,6.72,1.86,8.56,2.84,1.85.98,3.3,2.31,4.35,4.01,1.05,1.7,1.57,3.79,1.57,6.28,0,2.26-.62,4.38-1.88,6.35s-3.03,3.44-5.32,4.4c-2.3.96-5.16,1.44-8.58,1.44-4.98,0-8.81-1.15-11.48-3.45-2.67-2.29-4.26-5.65-4.78-10.04Z"/>
    <path class="cls-1" d="M58.93,58.24l-3.1-.55c.35-1.27.95-2.2,1.81-2.81.85-.61,2.12-.91,3.81-.91,1.53,0,2.67.18,3.42.54.75.36,1.27.82,1.58,1.38.3.56.46,1.58.46,3.07l-.05,4c0,1.14.05,1.98.16,2.52.11.54.31,1.12.61,1.74h-3.4c-.09-.22-.2-.56-.33-1-.05-.2-.1-.34-.12-.4-.58.57-1.21,1-1.87,1.29-.67.29-1.37.43-2.13.43-1.33,0-2.38-.36-3.14-1.09-.77-.72-1.15-1.64-1.15-2.74,0-.73.18-1.38.52-1.96.35-.57.84-1.01,1.47-1.32.63-.3,1.54-.57,2.72-.8,1.6-.3,2.71-.58,3.33-.84v-.35c0-.67-.16-1.14-.49-1.43-.33-.28-.95-.42-1.85-.42-.61,0-1.09.12-1.43.37-.35.24-.62.67-.83,1.28h0ZM63.53,61.02c-.44.15-1.13.32-2.09.52-.95.2-1.57.4-1.87.6-.45.32-.67.72-.67,1.21s.18.9.54,1.24c.36.35.81.52,1.37.52.62,0,1.21-.2,1.77-.61.41-.31.69-.69.82-1.14.09-.29.13-.85.13-1.67v-.68Z"/>
  </g>
</svg>