<svg width="56" height="56" viewBox="0 0 56 56" fill="none" xmlns="http://www.w3.org/2000/svg">
<path fill-rule="evenodd" clip-rule="evenodd" d="M28 56C43.463 56 56 43.463 56 28C56 12.537 43.463 0 28 0C12.537 0 0 12.537 0 28C0 43.463 12.537 56 28 56ZM37.807 26.04L22.799 16.3333C22.6228 16.2197 22.4193 16.1557 22.2098 16.1479C22.0003 16.1402 21.7926 16.189 21.6086 16.2893C21.4245 16.3895 21.2708 16.5376 21.1637 16.7178C21.0566 16.898 21.0001 17.1037 21 17.3133V38.6867C20.9998 38.8967 21.0563 39.1028 21.1635 39.2834C21.2707 39.4639 21.4247 39.6122 21.6091 39.7126C21.7936 39.8129 22.0017 39.8616 22.2115 39.8535C22.4214 39.8455 22.6251 39.7809 22.8013 39.6667L37.8047 29.96C38.1321 29.7485 38.4014 29.4583 38.5878 29.1159C38.7743 28.7735 38.872 28.3899 38.872 28C38.872 27.6101 38.7743 27.2265 38.5878 26.8841C38.4014 26.5417 38.1321 26.2515 37.8047 26.04H37.807Z" fill="white"/>
</svg>
